<svg width="344" height="874" viewBox="0 0 344 874" fill="none" xmlns="http://www.w3.org/2000/svg">
<path d="M343.803 873.107C225.65 830.522 160.869 787.466 129.031 741.866C96.8323 695.748 98.2703 646.938 112.456 593.122C125.406 543.995 123.415 506.645 113.507 476.538C103.6 446.438 85.7949 423.622 67.2002 403.544C57.9134 393.516 48.3928 384.135 39.5918 374.903C30.7771 365.658 22.654 356.533 16.0879 346.955C2.97034 327.82 -3.9323 306.877 2.34863 279.544C16.9114 216.171 59.2358 165.365 111.391 124.354C163.545 83.3422 225.487 52.1566 279.207 28.0137C302.85 17.388 324.887 8.13287 343.803 0V873.107Z" fill="#FF462D"/>
</svg>
