<svg width="1197" height="976" viewBox="0 0 1197 976" fill="none" xmlns="http://www.w3.org/2000/svg">
<rect x="615" y="964" width="180" height="12" rx="6" fill="#FF462D"/>
<rect x="648" y="794" width="114" height="12" rx="6" fill="#FF462D"/>
<rect x="563" y="764" width="71" height="12" rx="6" fill="#FF462D"/>
<rect width="70" height="12" rx="6" transform="matrix(-1 0 0 1 848 764)" fill="#FF462D"/>
<rect x="531" y="749" width="57" height="12" rx="6" fill="#FF462D"/>
<rect x="513" y="734" width="45" height="12" rx="6" fill="#FF462D"/>
<rect x="590" y="779" width="229" height="12" rx="6" fill="#FF462D"/>
<rect x="539" y="948" width="333" height="12" rx="6" fill="#FF462D"/>
<rect x="788" y="932" width="110" height="12" rx="6" fill="#FF462D"/>
<rect width="263" height="12" rx="6" transform="matrix(-1 0 0 1 626 932)" fill="#FF462D"/>
<rect x="836" y="916" width="110" height="12" rx="6" fill="#FF462D"/>
<rect width="110" height="12" rx="6" transform="matrix(-1 0 0 1 578 916)" fill="#FF462D"/>
<rect x="869" y="900" width="110" height="12" rx="6" fill="#FF462D"/>
<rect width="110" height="12" rx="6" transform="matrix(-1 0 0 1 545 900)" fill="#FF462D"/>
<rect x="911" y="884" width="89" height="12" rx="6" fill="#FF462D"/>
<rect width="89" height="12" rx="6" transform="matrix(-1 0 0 1 503 884)" fill="#FF462D"/>
<rect x="953" y="868" width="61" height="12" rx="6" fill="#FF462D"/>
<rect width="61" height="12" rx="6" transform="matrix(-1 0 0 1 461 868)" fill="#FF462D"/>
<rect x="1005" y="841" width="39" height="12" rx="6" fill="#FF462D"/>
<rect width="39" height="12" rx="6" transform="matrix(-1 0 0 1 404 841)" fill="#FF462D"/>
<rect x="989" y="826" width="39" height="12" rx="6" fill="#FF462D"/>
<rect width="39" height="12" rx="6" transform="matrix(-1 0 0 1 420 826)" fill="#FF462D"/>
<rect x="1020" y="856" width="39" height="12" rx="6" fill="#FF462D"/>
<rect width="39" height="12" rx="6" transform="matrix(-1 0 0 1 389 856)" fill="#FF462D"/>
<rect x="1035" y="871" width="39" height="12" rx="6" fill="#FF462D"/>
<rect width="39" height="12" rx="6" transform="matrix(-1 0 0 1 374 871)" fill="#FF462D"/>
<rect x="1050" y="886" width="39" height="12" rx="6" fill="#FF462D"/>
<rect width="39" height="12" rx="6" transform="matrix(-1 0 0 1 359 886)" fill="#FF462D"/>
<rect x="1005" y="901" width="99" height="12" rx="6" fill="#FF462D"/>
<rect width="39" height="12" rx="6" transform="matrix(-1 0 0 1 344 901)" fill="#FF462D"/>
<rect x="1080" y="916" width="39" height="12" rx="6" fill="#FF462D"/>
<rect width="39" height="12" rx="6" transform="matrix(-1 0 0 1 329 916)" fill="#FF462D"/>
<rect x="1095" y="931" width="39" height="12" rx="6" fill="#FF462D"/>
<rect width="39" height="12" rx="6" transform="matrix(-1 0 0 1 314 931)" fill="#FF462D"/>
<rect width="39" height="12" rx="6" transform="matrix(-1 0 0 1 299 946)" fill="#FF462D"/>
<rect x="1154" y="946" width="39" height="12" rx="6" fill="#FF462D"/>
<rect width="39" height="12" rx="6" transform="matrix(-1 0 0 1 255 946)" fill="#FF462D"/>
<rect x="1165" y="931" width="32" height="12" rx="6" fill="#FF462D"/>
<rect width="32" height="12" rx="6" transform="matrix(-1 0 0 1 244 931)" fill="#FF462D"/>
<rect x="1157" y="916" width="36" height="12" rx="6" fill="#FF462D"/>
<rect width="36" height="12" rx="6" transform="matrix(-1 0 0 1 252 916)" fill="#FF462D"/>
<rect x="1145" y="901" width="36" height="12" rx="6" fill="#FF462D"/>
<rect width="36" height="12" rx="6" transform="matrix(-1 0 0 1 264 901)" fill="#FF462D"/>
<rect x="1130" y="886" width="36" height="12" rx="6" fill="#FF462D"/>
<rect width="36" height="12" rx="6" transform="matrix(-1 0 0 1 279 886)" fill="#FF462D"/>
<rect x="1115" y="871" width="36" height="12" rx="6" fill="#FF462D"/>
<rect width="90" height="12" rx="6" transform="matrix(-1 0 0 1 294 871)" fill="#FF462D"/>
<rect x="1100" y="856" width="36" height="12" rx="6" fill="#FF462D"/>
<rect width="36" height="12" rx="6" transform="matrix(-1 0 0 1 309 856)" fill="#FF462D"/>
<rect width="36" height="12" rx="6" transform="matrix(-1 0 0 1 323 841)" fill="#FF462D"/>
<rect x="1070" y="826" width="36" height="12" rx="6" fill="#FF462D"/>
<rect width="36" height="12" rx="6" transform="matrix(-1 0 0 1 339 826)" fill="#FF462D"/>
<rect x="1055" y="811" width="36" height="12" rx="6" fill="#FF462D"/>
<rect width="189" height="12" rx="6" transform="matrix(-1 0 0 1 354 811)" fill="#FF462D"/>
<rect x="1040" y="796" width="36" height="12" rx="6" fill="#FF462D"/>
<rect width="36" height="12" rx="6" transform="matrix(-1 0 0 1 369 796)" fill="#FF462D"/>
<rect x="1025" y="781" width="36" height="12" rx="6" fill="#FF462D"/>
<rect width="36" height="12" rx="6" transform="matrix(-1 0 0 1 384 781)" fill="#FF462D"/>
<rect x="971" y="766" width="75" height="12" rx="6" fill="#FF462D"/>
<rect width="37" height="12" rx="6" transform="matrix(-1 0 0 1 400 766)" fill="#FF462D"/>
<rect width="37" height="12" rx="6" transform="matrix(-1 0 0 1 414 751)" fill="#FF462D"/>
<rect width="27" height="12" rx="6" transform="matrix(-1 0 0 1 336 766)" fill="#FF462D"/>
<rect x="1074" y="766" width="27" height="12" rx="6" fill="#FF462D"/>
<rect x="345" y="208" width="158" height="12" rx="6" transform="rotate(180 345 208)" fill="#FF462D"/>
<rect width="35" height="12" rx="6" transform="matrix(1 0 0 -1 1065 208)" fill="#FF462D"/>
<rect width="35" height="12" rx="6" transform="matrix(1 0 0 -1 1053 193)" fill="#FF462D"/>
<rect x="359" y="193" width="35" height="12" rx="6" transform="rotate(180 359 193)" fill="#FF462D"/>
<rect width="35" height="12" rx="6" transform="matrix(1 0 0 -1 1040 178)" fill="#FF462D"/>
<rect x="372" y="178" width="35" height="12" rx="6" transform="rotate(180 372 178)" fill="#FF462D"/>
<rect width="35" height="12" rx="6" transform="matrix(1 0 0 -1 1026 163)" fill="#FF462D"/>
<rect x="386" y="163" width="35" height="12" rx="6" transform="rotate(180 386 163)" fill="#FF462D"/>
<rect width="104" height="12" rx="6" transform="matrix(1 0 0 -1 941 148)" fill="#FF462D"/>
<rect x="402" y="148" width="35" height="12" rx="6" transform="rotate(180 402 148)" fill="#FF462D"/>
<rect width="38" height="12" rx="6" transform="matrix(1 0 0 -1 992 133)" fill="#FF462D"/>
<rect x="420" y="133" width="38" height="12" rx="6" transform="rotate(180 420 133)" fill="#FF462D"/>
<rect width="39" height="12" rx="6" transform="matrix(1 0 0 -1 973 118)" fill="#FF462D"/>
<rect x="439" y="118" width="95" height="12" rx="6" transform="rotate(180 439 118)" fill="#FF462D"/>
<rect width="215" height="12" rx="6" transform="matrix(1 0 0 -1 778 103)" fill="#FF462D"/>
<rect x="462" y="103" width="43" height="12" rx="6" transform="rotate(180 462 103)" fill="#FF462D"/>
<rect width="45" height="12" rx="6" transform="matrix(1 0 0 -1 925 88)" fill="#FF462D"/>
<rect x="487" y="88" width="45" height="12" rx="6" transform="rotate(180 487 88)" fill="#FF462D"/>
<rect width="49" height="12" rx="6" transform="matrix(1 0 0 -1 896 73)" fill="#FF462D"/>
<rect x="516" y="73" width="49" height="12" rx="6" transform="rotate(180 516 73)" fill="#FF462D"/>
<rect width="55" height="12" rx="6" transform="matrix(1 0 0 -1 861 58)" fill="#FF462D"/>
<rect x="551" y="58" width="55" height="12" rx="6" transform="rotate(180 551 58)" fill="#FF462D"/>
<rect width="66" height="12" rx="6" transform="matrix(1 0 0 -1 815 43)" fill="#FF462D"/>
<rect x="597" y="43" width="310" height="12" rx="6" transform="rotate(180 597 43)" fill="#FF462D"/>
<rect width="260" height="12" rx="6" transform="matrix(1 0 0 -1 575 28)" fill="#FF462D"/>
<rect width="135" height="12" rx="6" transform="matrix(1 0 0 -1 637 12)" fill="#FF462D"/>
<rect width="34" height="12" rx="6" transform="matrix(-1 0 0 1 333 751)" fill="#FF462D"/>
<rect x="1077" y="751" width="34" height="12" rx="6" fill="#FF462D"/>
<rect x="334" y="223" width="34" height="12" rx="6" transform="rotate(180 334 223)" fill="#FF462D"/>
<rect width="34" height="12" rx="6" transform="matrix(1 0 0 -1 1076 223)" fill="#FF462D"/>
<rect width="34" height="12" rx="6" transform="matrix(-1 0 0 1 323 736)" fill="#FF462D"/>
<rect x="1087" y="736" width="34" height="12" rx="6" fill="#FF462D"/>
<rect x="324" y="238" width="34" height="12" rx="6" transform="rotate(180 324 238)" fill="#FF462D"/>
<rect width="34" height="12" rx="6" transform="matrix(1 0 0 -1 1086 238)" fill="#FF462D"/>
<rect width="34" height="12" rx="6" transform="matrix(-1 0 0 1 314 721)" fill="#FF462D"/>
<rect x="1096" y="721" width="34" height="12" rx="6" fill="#FF462D"/>
<rect x="315" y="253" width="34" height="12" rx="6" transform="rotate(180 315 253)" fill="#FF462D"/>
<rect width="134" height="12" rx="6" transform="matrix(1 0 0 -1 995 253)" fill="#FF462D"/>
<rect width="34" height="12" rx="6" transform="matrix(-1 0 0 1 305 706)" fill="#FF462D"/>
<rect x="1046" y="706" width="93" height="12" rx="6" fill="#FF462D"/>
<rect x="306" y="268" width="34" height="12" rx="6" transform="rotate(180 306 268)" fill="#FF462D"/>
<rect width="34" height="12" rx="6" transform="matrix(1 0 0 -1 1104 268)" fill="#FF462D"/>
<rect width="32" height="12" rx="6" transform="matrix(-1 0 0 1 296 691)" fill="#FF462D"/>
<rect x="1114" y="691" width="32" height="12" rx="6" fill="#FF462D"/>
<rect x="297" y="283" width="32" height="12" rx="6" transform="rotate(180 297 283)" fill="#FF462D"/>
<rect width="32" height="12" rx="6" transform="matrix(1 0 0 -1 1113 283)" fill="#FF462D"/>
<rect width="32" height="12" rx="6" transform="matrix(-1 0 0 1 289 676)" fill="#FF462D"/>
<rect x="1121" y="676" width="32" height="12" rx="6" fill="#FF462D"/>
<rect x="290" y="298" width="32" height="12" rx="6" transform="rotate(180 290 298)" fill="#FF462D"/>
<rect width="32" height="12" rx="6" transform="matrix(1 0 0 -1 1120 298)" fill="#FF462D"/>
<rect width="32" height="12" rx="6" transform="matrix(-1 0 0 1 283 661)" fill="#FF462D"/>
<rect x="1127" y="661" width="32" height="12" rx="6" fill="#FF462D"/>
<rect x="284" y="313" width="284" height="12" rx="6" transform="rotate(180 284 313)" fill="#FF462D"/>
<rect width="58" height="12" rx="6" transform="matrix(1 0 0 -1 1100 313)" fill="#FF462D"/>
<rect width="32" height="12" rx="6" transform="matrix(-1 0 0 1 277 646)" fill="#FF462D"/>
<rect x="1133" y="646" width="32" height="12" rx="6" fill="#FF462D"/>
<rect x="278" y="328" width="32" height="12" rx="6" transform="rotate(180 278 328)" fill="#FF462D"/>
<rect width="32" height="12" rx="6" transform="matrix(1 0 0 -1 1132 328)" fill="#FF462D"/>
<rect width="120" height="12" rx="6" transform="matrix(-1 0 0 1 271 631)" fill="#FF462D"/>
<rect x="1139" y="631" width="31" height="12" rx="6" fill="#FF462D"/>
<rect x="272" y="343" width="152" height="12" rx="6" transform="rotate(180 272 343)" fill="#FF462D"/>
<rect width="31" height="12" rx="6" transform="matrix(1 0 0 -1 1138 343)" fill="#FF462D"/>
<rect width="31" height="12" rx="6" transform="matrix(-1 0 0 1 267 616)" fill="#FF462D"/>
<rect x="1143" y="616" width="31" height="12" rx="6" fill="#FF462D"/>
<rect x="268" y="358" width="31" height="12" rx="6" transform="rotate(180 268 358)" fill="#FF462D"/>
<rect width="133" height="12" rx="6" transform="matrix(1 0 0 -1 1040 358)" fill="#FF462D"/>
<rect width="31" height="12" rx="6" transform="matrix(-1 0 0 1 262 601)" fill="#FF462D"/>
<rect x="1148" y="601" width="31" height="12" rx="6" fill="#FF462D"/>
<rect x="263" y="373" width="31" height="12" rx="6" transform="rotate(180 263 373)" fill="#FF462D"/>
<rect width="31" height="12" rx="6" transform="matrix(1 0 0 -1 1147 373)" fill="#FF462D"/>
<rect width="31" height="12" rx="6" transform="matrix(-1 0 0 1 259 586)" fill="#FF462D"/>
<rect x="1151" y="586" width="31" height="12" rx="6" fill="#FF462D"/>
<rect x="260" y="388" width="31" height="12" rx="6" transform="rotate(180 260 388)" fill="#FF462D"/>
<rect width="31" height="12" rx="6" transform="matrix(1 0 0 -1 1150 388)" fill="#FF462D"/>
<rect width="191" height="12" rx="6" transform="matrix(-1 0 0 1 256 571)" fill="#FF462D"/>
<rect x="1130" y="571" width="55" height="12" rx="6" fill="#FF462D"/>
<rect x="257" y="403" width="101" height="12" rx="6" transform="rotate(180 257 403)" fill="#FF462D"/>
<rect width="31" height="12" rx="6" transform="matrix(1 0 0 -1 1153 403)" fill="#FF462D"/>
<rect width="30" height="12" rx="6" transform="matrix(-1 0 0 1 253 556)" fill="#FF462D"/>
<rect x="1157" y="556" width="30" height="12" rx="6" fill="#FF462D"/>
<rect x="254" y="418" width="30" height="12" rx="6" transform="rotate(180 254 418)" fill="#FF462D"/>
<rect width="30" height="12" rx="6" transform="matrix(1 0 0 -1 1156 418)" fill="#FF462D"/>
<rect width="30" height="12" rx="6" transform="matrix(-1 0 0 1 250 541)" fill="#FF462D"/>
<rect x="1160" y="541" width="30" height="12" rx="6" fill="#FF462D"/>
<rect x="251" y="433" width="30" height="12" rx="6" transform="rotate(180 251 433)" fill="#FF462D"/>
<rect width="30" height="12" rx="6" transform="matrix(1 0 0 -1 1159 433)" fill="#FF462D"/>
<rect width="30" height="12" rx="6" transform="matrix(-1 0 0 1 249 526)" fill="#FF462D"/>
<rect x="1059" y="526" width="132" height="12" rx="6" fill="#FF462D"/>
<rect x="250" y="448" width="30" height="12" rx="6" transform="rotate(180 250 448)" fill="#FF462D"/>
<rect width="30" height="12" rx="6" transform="matrix(1 0 0 -1 1160 448)" fill="#FF462D"/>
<rect width="30" height="12" rx="6" transform="matrix(-1 0 0 1 248 511)" fill="#FF462D"/>
<rect x="1162" y="511" width="30" height="12" rx="6" fill="#FF462D"/>
<rect x="249" y="463" width="30" height="12" rx="6" transform="rotate(180 249 463)" fill="#FF462D"/>
<rect width="30" height="12" rx="6" transform="matrix(1 0 0 -1 1161 463)" fill="#FF462D"/>
<rect width="30" height="12" rx="6" transform="matrix(-1 0 0 1 247 496)" fill="#FF462D"/>
<rect x="1163" y="496" width="30" height="12" rx="6" fill="#FF462D"/>
<rect x="248" y="478" width="30" height="12" rx="6" transform="rotate(180 248 478)" fill="#FF462D"/>
<rect width="30" height="12" rx="6" transform="matrix(1 0 0 -1 1162 478)" fill="#FF462D"/>
<rect width="30" height="12" rx="6" transform="matrix(-1 0 0 1 247 481)" fill="#FF462D"/>
<rect x="1163" y="481" width="30" height="12" rx="6" fill="#FF462D"/>
<rect width="37" height="12" rx="6" transform="matrix(-1 0 0 1 429 736)" fill="#FF462D"/>
<rect width="37" height="12" rx="6" transform="matrix(-1 0 0 1 480 736)" fill="#FF462D"/>
<rect width="37" height="12" rx="6" transform="matrix(-1 0 0 1 499 706)" fill="#FF462D"/>
<rect width="120" height="12" rx="6" transform="matrix(-1 0 0 1 515 691)" fill="#FF462D"/>
<rect width="38" height="12" rx="6" transform="matrix(-1 0 0 1 532 676)" fill="#FF462D"/>
<rect width="37" height="12" rx="6" transform="matrix(-1 0 0 1 545 661)" fill="#FF462D"/>
<rect width="30" height="12" rx="6" transform="matrix(-1 0 0 1 472 661)" fill="#FF462D"/>
<rect width="34" height="12" rx="6" transform="matrix(-1 0 0 1 466 646)" fill="#FF462D"/>
<rect width="34" height="12" rx="6" transform="matrix(-1 0 0 1 457 631)" fill="#FF462D"/>
<rect x="954" y="631" width="34" height="12" rx="6" fill="#FF462D"/>
<rect width="31" height="12" rx="6" transform="matrix(-1 0 0 1 447 616)" fill="#FF462D"/>
<rect x="964" y="616" width="31" height="12" rx="6" fill="#FF462D"/>
<rect width="81" height="12" rx="6" transform="matrix(-1 0 0 1 440 601)" fill="#FF462D"/>
<rect x="956" y="601" width="46" height="12" rx="6" fill="#FF462D"/>
<rect width="31" height="12" rx="6" transform="matrix(-1 0 0 1 435 586)" fill="#FF462D"/>
<rect x="896" y="586" width="111" height="12" rx="6" fill="#FF462D"/>
<rect width="31" height="12" rx="6" transform="matrix(-1 0 0 1 430 571)" fill="#FF462D"/>
<rect x="981" y="571" width="31" height="12" rx="6" fill="#FF462D"/>
<rect width="139" height="12" rx="6" transform="matrix(-1 0 0 1 426 556)" fill="#FF462D"/>
<rect x="985" y="556" width="31" height="12" rx="6" fill="#FF462D"/>
<rect width="29" height="12" rx="6" transform="matrix(-1 0 0 1 421 541)" fill="#FF462D"/>
<rect x="990" y="541" width="29" height="12" rx="6" fill="#FF462D"/>
<rect width="29" height="12" rx="6" transform="matrix(-1 0 0 1 418 526)" fill="#FF462D"/>
<rect x="993" y="526" width="29" height="12" rx="6" fill="#FF462D"/>
<rect width="87" height="12" rx="6" transform="matrix(-1 0 0 1 416 511)" fill="#FF462D"/>
<rect x="995" y="511" width="29" height="12" rx="6" fill="#FF462D"/>
<rect width="29" height="12" rx="6" transform="matrix(-1 0 0 1 415 496)" fill="#FF462D"/>
<rect x="996" y="496" width="29" height="12" rx="6" fill="#FF462D"/>
<rect width="29" height="12" rx="6" transform="matrix(-1 0 0 1 415 481)" fill="#FF462D"/>
<rect x="940" y="481" width="85" height="12" rx="6" fill="#FF462D"/>
<rect width="29" height="12" rx="6" transform="matrix(-1 0 0 1 416 466)" fill="#FF462D"/>
<rect x="995" y="466" width="29" height="12" rx="6" fill="#FF462D"/>
<rect width="29" height="12" rx="6" transform="matrix(-1 0 0 1 417 451)" fill="#FF462D"/>
<rect x="994" y="451" width="29" height="12" rx="6" fill="#FF462D"/>
<rect width="29" height="12" rx="6" transform="matrix(-1 0 0 1 419 436)" fill="#FF462D"/>
<rect x="992" y="436" width="29" height="12" rx="6" fill="#FF462D"/>
<rect width="31" height="12" rx="6" transform="matrix(-1 0 0 1 423 421)" fill="#FF462D"/>
<rect x="988" y="421" width="31" height="12" rx="6" fill="#FF462D"/>
<rect width="111" height="12" rx="6" transform="matrix(-1 0 0 1 426 406)" fill="#FF462D"/>
<rect x="928" y="406" width="87" height="12" rx="6" fill="#FF462D"/>
<rect width="30" height="12" rx="6" transform="matrix(-1 0 0 1 430 391)" fill="#FF462D"/>
<rect x="981" y="391" width="30" height="12" rx="6" fill="#FF462D"/>
<rect width="30" height="12" rx="6" transform="matrix(-1 0 0 1 435 376)" fill="#FF462D"/>
<rect x="976" y="376" width="30" height="12" rx="6" fill="#FF462D"/>
<rect width="30" height="12" rx="6" transform="matrix(-1 0 0 1 441 361)" fill="#FF462D"/>
<rect x="970" y="361" width="30" height="12" rx="6" fill="#FF462D"/>
<rect width="170" height="12" rx="6" transform="matrix(-1 0 0 1 448 346)" fill="#FF462D"/>
<rect x="963" y="346" width="30" height="12" rx="6" fill="#FF462D"/>
<rect width="31" height="12" rx="6" transform="matrix(-1 0 0 1 457 331)" fill="#FF462D"/>
<rect x="954" y="331" width="31" height="12" rx="6" fill="#FF462D"/>
<rect width="31" height="12" rx="6" transform="matrix(-1 0 0 1 466 316)" fill="#FF462D"/>
<rect x="854" y="316" width="122" height="12" rx="6" fill="#FF462D"/>
<rect width="34" height="12" rx="6" transform="matrix(-1 0 0 1 478 301)" fill="#FF462D"/>
<rect x="933" y="301" width="34" height="12" rx="6" fill="#FF462D"/>
<rect width="34" height="12" rx="6" transform="matrix(-1 0 0 1 490 286)" fill="#FF462D"/>
<rect x="921" y="286" width="34" height="12" rx="6" fill="#FF462D"/>
<rect x="545" y="286" width="233" height="12" rx="6" fill="#FF462D"/>
<rect x="599" y="301" width="47" height="12" rx="6" fill="#FF462D"/>
<rect width="47" height="12" rx="6" transform="matrix(-1 0 0 1 811 301)" fill="#FF462D"/>
<rect x="574" y="316" width="47" height="12" rx="6" fill="#FF462D"/>
<rect width="47" height="12" rx="6" transform="matrix(-1 0 0 1 836 316)" fill="#FF462D"/>
<rect x="574" y="331" width="21" height="12" rx="6" fill="#FF462D"/>
<rect width="39" height="12" rx="6" transform="matrix(-1 0 0 1 854 331)" fill="#FF462D"/>
<rect width="36" height="12" rx="6" transform="matrix(-1 0 0 1 868 346)" fill="#FF462D"/>
<rect width="127" height="12" rx="6" transform="matrix(-1 0 0 1 881 361)" fill="#FF462D"/>
<rect width="32" height="12" rx="6" transform="matrix(-1 0 0 1 891 376)" fill="#FF462D"/>
<rect width="20" height="12" rx="6" transform="matrix(-1 0 0 1 889 391)" fill="#FF462D"/>
<rect width="19" height="12" rx="6" transform="matrix(-1 0 0 1 902 454)" fill="#FF462D"/>
<rect width="19" height="12" rx="6" transform="matrix(-1 0 0 1 905 469)" fill="#FF462D"/>
<rect width="19" height="12" rx="6" transform="matrix(-1 0 0 1 905 484)" fill="#FF462D"/>
<rect width="72" height="12" rx="6" transform="matrix(-1 0 0 1 902 499)" fill="#FF462D"/>
<rect width="85" height="12" rx="6" transform="matrix(-1 0 0 1 503 271)" fill="#FF462D"/>
<rect x="908" y="271" width="34" height="12" rx="6" fill="#FF462D"/>
<rect width="37" height="12" rx="6" transform="matrix(-1 0 0 1 520 256)" fill="#FF462D"/>
<rect x="791" y="256" width="137" height="12" rx="6" fill="#FF462D"/>
<rect width="39" height="12" rx="6" transform="matrix(-1 0 0 1 540 241)" fill="#FF462D"/>
<rect x="871" y="241" width="39" height="12" rx="6" fill="#FF462D"/>
<rect width="43" height="12" rx="6" transform="matrix(-1 0 0 1 565 226)" fill="#FF462D"/>
<rect x="846" y="226" width="43" height="12" rx="6" fill="#FF462D"/>
<rect width="47" height="12" rx="6" transform="matrix(-1 0 0 1 594 211)" fill="#FF462D"/>
<rect x="799" y="211" width="65" height="12" rx="6" fill="#FF462D"/>
<rect width="215" height="12" rx="6" transform="matrix(-1 0 0 1 636 196)" fill="#FF462D"/>
<rect x="775" y="196" width="60" height="12" rx="6" fill="#FF462D"/>
<rect width="60" height="12" rx="6" transform="matrix(-1 0 0 1 735 166)" fill="#FF462D"/>
<rect width="60" height="12" rx="6" transform="matrix(-1 0 0 1 735 271)" fill="#FF462D"/>
<rect width="168" height="12" rx="6" transform="matrix(-1 0 0 1 786 181)" fill="#FF462D"/>
<rect width="70" height="12" rx="6" transform="matrix(-1 0 0 1 606 676)" fill="#FF462D"/>
<rect width="25" height="12" rx="6" transform="matrix(-1 0 0 1 584 691)" fill="#FF462D"/>
<rect width="54" height="12" rx="6" transform="matrix(-1 0 0 1 559 646)" fill="#FF462D"/>
<rect width="37" height="12" rx="6" transform="matrix(-1 0 0 1 574 631)" fill="#FF462D"/>
<rect width="37" height="12" rx="6" transform="matrix(-1 0 0 1 590 616)" fill="#FF462D"/>
<rect width="37" height="12" rx="6" transform="matrix(-1 0 0 1 627 661)" fill="#FF462D"/>
<rect width="31" height="12" rx="6" transform="matrix(-1 0 0 1 529 601)" fill="#FF462D"/>
<rect width="31" height="12" rx="6" transform="matrix(-1 0 0 1 528 616)" fill="#FF462D"/>
<rect width="29" height="12" rx="6" transform="matrix(-1 0 0 1 529 631)" fill="#FF462D"/>
<rect width="37" height="12" rx="6" transform="matrix(-1 0 0 1 606 601)" fill="#FF462D"/>
<rect width="37" height="12" rx="6" transform="matrix(-1 0 0 1 643 646)" fill="#FF462D"/>
<rect width="37" height="12" rx="6" transform="matrix(-1 0 0 1 598 526)" fill="#FF462D"/>
<rect width="70" height="12" rx="6" transform="matrix(-1 0 0 1 615 511)" fill="#FF462D"/>
<rect width="37" height="12" rx="6" transform="matrix(-1 0 0 1 620 586)" fill="#FF462D"/>
<rect width="37" height="12" rx="6" transform="matrix(-1 0 0 1 657 631)" fill="#FF462D"/>
<rect width="37" height="12" rx="6" transform="matrix(-1 0 0 1 540 586)" fill="#FF462D"/>
<rect width="37" height="12" rx="6" transform="matrix(-1 0 0 1 634 571)" fill="#FF462D"/>
<rect width="37" height="12" rx="6" transform="matrix(-1 0 0 1 671 616)" fill="#FF462D"/>
<rect width="37" height="12" rx="6" transform="matrix(-1 0 0 1 554 571)" fill="#FF462D"/>
<rect width="37" height="12" rx="6" transform="matrix(-1 0 0 1 649 556)" fill="#FF462D"/>
<rect width="37" height="12" rx="6" transform="matrix(-1 0 0 1 686 601)" fill="#FF462D"/>
<rect width="37" height="12" rx="6" transform="matrix(-1 0 0 1 569 556)" fill="#FF462D"/>
<rect width="37" height="12" rx="6" transform="matrix(-1 0 0 1 666 541)" fill="#FF462D"/>
<rect width="26" height="12" rx="6" transform="matrix(-1 0 0 1 692 586)" fill="#FF462D"/>
<rect width="124" height="12" rx="6" transform="matrix(-1 0 0 1 586 541)" fill="#FF462D"/>
<rect width="18" height="12" rx="6" transform="matrix(-1 0 0 1 664 526)" fill="#FF462D"/>
<rect width="77" height="12" rx="6" transform="matrix(-1 0 0 1 483 721)" fill="#FF462D"/>
<rect x="995" y="751" width="36" height="12" rx="6" fill="#FF462D"/>
<rect x="921" y="736" width="95" height="12" rx="6" fill="#FF462D"/>
<rect x="965" y="721" width="36" height="12" rx="6" fill="#FF462D"/>
<rect x="950" y="706" width="36" height="12" rx="6" fill="#FF462D"/>
<rect x="935" y="691" width="36" height="12" rx="6" fill="#FF462D"/>
<rect x="875" y="676" width="81" height="12" rx="6" fill="#FF462D"/>
<rect x="905" y="661" width="36" height="12" rx="6" fill="#FF462D"/>
<rect x="890" y="646" width="36" height="12" rx="6" fill="#FF462D"/>
<rect x="875" y="631" width="36" height="12" rx="6" fill="#FF462D"/>
<rect x="860" y="616" width="36" height="12" rx="6" fill="#FF462D"/>
<rect x="845" y="601" width="36" height="12" rx="6" fill="#FF462D"/>
<rect x="830" y="586" width="36" height="12" rx="6" fill="#FF462D"/>
<rect x="815" y="571" width="36" height="12" rx="6" fill="#FF462D"/>
<rect x="800" y="556" width="36" height="12" rx="6" fill="#FF462D"/>
<rect x="785" y="541" width="36" height="12" rx="6" fill="#FF462D"/>
<rect x="758" y="541" width="23" height="12" rx="6" fill="#FF462D"/>
<rect x="761" y="556" width="34" height="12" rx="6" fill="#FF462D"/>
<rect x="766" y="571" width="34" height="12" rx="6" fill="#FF462D"/>
<rect x="771" y="586" width="34" height="12" rx="6" fill="#FF462D"/>
<rect x="778" y="601" width="34" height="12" rx="6" fill="#FF462D"/>
<rect x="785" y="616" width="34" height="12" rx="6" fill="#FF462D"/>
<rect x="749" y="631" width="77" height="12" rx="6" fill="#FF462D"/>
<rect x="799" y="646" width="34" height="12" rx="6" fill="#FF462D"/>
<rect x="807" y="661" width="34" height="12" rx="6" fill="#FF462D"/>
<rect x="816" y="676" width="34" height="12" rx="6" fill="#FF462D"/>
<rect x="826" y="691" width="34" height="12" rx="6" fill="#FF462D"/>
<rect x="836" y="706" width="34" height="12" rx="6" fill="#FF462D"/>
<rect x="671" y="721" width="209" height="12" rx="6" fill="#FF462D"/>
<rect x="856" y="736" width="34" height="12" rx="6" fill="#FF462D"/>
<rect x="867" y="751" width="34" height="12" rx="6" fill="#FF462D"/>
<rect x="879" y="766" width="34" height="12" rx="6" fill="#FF462D"/>
<rect x="892" y="781" width="34" height="12" rx="6" fill="#FF462D"/>
<rect x="958" y="781" width="40" height="12" rx="6" fill="#FF462D"/>
<rect x="906" y="796" width="34" height="12" rx="6" fill="#FF462D"/>
<rect x="946" y="796" width="52" height="12" rx="6" fill="#FF462D"/>
<rect width="168" height="12" rx="6" transform="matrix(-1 0 0 1 447 796)" fill="#FF462D"/>
<rect x="921" y="811" width="44" height="12" rx="6" fill="#FF462D"/>
<rect x="978" y="811" width="36" height="12" rx="6" fill="#FF462D"/>
<rect width="36" height="12" rx="6" transform="matrix(-1 0 0 1 431 811)" fill="#FF462D"/>
<rect width="36" height="12" rx="6" transform="matrix(-1 0 0 1 461 781)" fill="#FF462D"/>
<rect width="36" height="12" rx="6" transform="matrix(-1 0 0 1 479 766)" fill="#FF462D"/>
<rect width="36" height="12" rx="6" transform="matrix(-1 0 0 1 490 750)" fill="#FF462D"/>
<rect x="933" y="826" width="20" height="12" rx="6" fill="#FF462D"/>
<rect x="754" y="526" width="52" height="12" rx="6" fill="#FF462D"/>
<rect x="715" y="511" width="76" height="12" rx="6" fill="#FF462D"/>
<rect x="1125" y="961" width="55" height="12" rx="6" fill="#FF462D"/>
<rect width="55" height="12" rx="6" transform="matrix(-1 0 0 1 284 961)" fill="#FF462D"/>
</svg>
