<svg width="977" height="977" viewBox="0 0 977 977" fill="none" xmlns="http://www.w3.org/2000/svg">
<path d="M91.5021 772.907C31.6425 689.778 0 591.352 0 488.265C0 219.036 219.041 0 488.298 0C757.396 0 976.317 219.026 976.317 488.265C976.317 590.734 944.986 688.849 885.71 772.01C880.922 778.743 871.581 780.3 864.848 775.513C858.114 770.726 856.558 761.385 861.345 754.652C917.001 676.583 946.425 584.465 946.425 488.263C946.425 235.532 740.925 29.8865 488.297 29.8865C235.55 29.8865 29.8903 235.532 29.8903 488.263C29.8903 585.051 59.5869 677.439 115.749 755.429C120.575 762.123 119.057 771.464 112.363 776.29C109.716 778.197 106.681 779.092 103.645 779.092C99.0132 779.131 94.4216 776.954 91.5021 772.907ZM203.673 884.761C286.807 944.616 385.24 976.257 488.334 976.257C590.929 976.257 688.972 944.928 771.829 885.656C778.562 880.869 780.08 871.528 775.293 864.795C770.506 858.062 761.165 856.545 754.431 861.331C676.668 916.984 584.621 946.367 488.332 946.367C391.538 946.367 299.143 916.673 221.147 860.514C214.453 855.689 205.112 857.206 200.286 863.9C195.421 870.594 196.939 879.935 203.673 884.761ZM604.629 753.021C567.85 769.055 528.695 777.189 488.294 777.189C427.267 777.189 369.159 758.547 320.237 723.248C313.543 718.422 304.202 719.94 299.375 726.634C294.549 733.328 296.067 742.669 302.761 747.495C356.783 786.491 420.96 807.078 488.294 807.078C532.82 807.078 575.982 798.127 616.576 780.419C624.127 777.111 627.591 768.316 624.282 760.726C621.013 753.176 612.22 749.712 604.629 753.021ZM743.772 653.975C750.894 658.1 760.079 655.648 764.205 648.526C792.305 599.957 807.173 544.533 807.173 488.262C807.173 312.316 664.145 169.138 488.337 169.138C312.379 169.138 169.231 312.276 169.231 488.262C169.231 555.201 189.82 619.335 228.78 673.743C231.699 677.829 236.292 679.969 240.963 679.969C243.959 679.969 246.995 679.074 249.642 677.167C256.375 672.38 257.893 663.04 253.106 656.307C217.805 606.998 199.123 548.856 199.123 488.222C199.123 328.735 328.879 198.987 488.337 198.987C647.676 198.987 777.283 328.735 777.283 488.222C777.283 539.243 763.816 589.485 738.323 633.542C734.197 640.702 736.649 649.849 743.772 653.975ZM672.509 488.261C672.509 496.511 679.203 503.205 687.454 503.205C695.705 503.205 702.399 496.511 702.399 488.261C702.399 478.337 701.816 468.763 700.609 458.995C699.597 450.822 692.163 444.985 683.912 446.035C675.739 447.047 669.901 454.519 670.951 462.731C671.963 471.215 672.509 479.582 672.509 488.261ZM649.235 398.361C651.959 403.265 657.058 406.067 662.312 406.067C664.764 406.067 667.255 405.444 669.551 404.199C676.751 400.19 679.359 391.084 675.35 383.883C637.676 316.088 566.019 273.982 488.303 273.982C441.521 273.982 397.113 288.81 359.862 316.792C353.245 321.773 351.961 331.114 356.904 337.73C361.846 344.346 371.226 345.63 377.843 340.688C409.874 316.597 448.056 303.872 488.34 303.872C555.166 303.794 616.853 340.023 649.235 398.361ZM976.401 933.711C976.362 942.312 973.793 950.446 969.045 957.334C967.488 959.63 965.658 961.81 963.635 963.795C955.889 971.773 945.069 976.287 933.433 976.287C921.795 976.287 910.976 971.734 902.958 963.523L754.948 815.792L736.15 834.589C733.231 837.508 729.417 838.948 725.563 838.948C721.827 838.948 718.13 837.586 715.21 834.783C708.555 828.44 552.524 677.359 538.944 515.152C538.438 508.925 541.863 503.009 547.545 500.363C553.227 497.716 559.961 498.923 564.397 503.359L805.318 744.264L963.8 903.014C969.054 908.267 972.557 914.65 974.542 921.578C975.67 925.469 976.449 929.517 976.41 933.72L976.401 933.711ZM773.621 754.846L576.41 557.649C604.627 669.075 694.998 770.767 725.636 802.828L773.621 754.846ZM776.073 794.659L850.606 869.07L869.132 850.545L794.716 776.017L776.073 794.659ZM946.501 933.523C946.539 929.981 945.138 926.673 942.608 924.143L890.183 871.721L871.773 890.13L924.16 942.552C925.405 943.836 926.884 944.77 928.48 945.432C933.228 947.339 938.911 946.327 942.452 942.708C945.176 940.061 946.501 936.909 946.501 933.523ZM240.756 714.686L291.314 664.132C272.865 635.995 275.979 597.817 300.655 573.181L370.4 503.44C376.238 497.603 385.696 497.603 391.534 503.44C397.372 509.278 397.372 518.736 391.534 524.573L321.789 594.314C308.867 607.235 306.143 626.421 313.343 642.105L424.069 531.387C429.907 525.549 439.365 525.549 445.203 531.387C451.041 537.224 451.041 546.682 445.203 552.519L334.626 663.048C350.35 669.937 369.421 667.135 382.343 654.408L451.778 584.979C457.616 579.141 467.074 579.141 472.911 584.979C478.749 590.816 478.749 600.274 472.911 606.111L403.438 675.58C389.232 689.59 370.628 696.596 352.024 696.596C338.285 696.596 324.546 692.743 312.597 685.076L261.806 735.865C265.659 741.391 267.761 747.929 267.683 754.817C267.605 763.535 264.063 771.707 257.797 777.74L132.434 903.323C132.357 903.401 132.357 903.479 132.279 903.518L71.5624 964.23C63.7005 972.091 53.1526 976.45 41.9435 976.45C30.6955 976.45 20.1869 972.092 12.3246 964.23C11.0791 962.946 10.0283 961.584 9.05531 960.143C-3.63238 943.448 -2.62107 919.669 12.3246 904.686L61.9485 855.104L198.749 718.313C209.764 707.221 228.056 706.053 240.744 714.693L240.756 714.686ZM76.3562 882.891L52.3419 906.904C36.0732 923.171 31.9084 939.361 33.5435 943.175C33.6213 943.058 34.2051 943.136 35.1393 943.136C42.3396 943.136 56.1954 937.104 69.6613 923.833L100.564 892.893L83.5177 875.729L76.3562 882.891ZM237.757 754.578C237.757 754.033 237.601 753.216 236.823 752.437L224.018 739.322C223.356 738.661 222.539 738.505 221.994 738.505C221.449 738.505 220.632 738.661 219.853 739.439L104.684 854.601L121.692 871.764L236.821 756.453C237.483 755.791 237.757 755.239 237.757 754.578Z" fill="#FF462D"/>
</svg>
