<svg width="472" height="546" viewBox="0 0 472 546" fill="none" xmlns="http://www.w3.org/2000/svg">
<circle cx="419" cy="493" r="53" fill="#FF462D"/>
<rect y="225" width="236" height="247" fill="#FF462D"/>
<path d="M236 0C366.339 0 472 105.661 472 236C472 366.339 366.339 472 236 472C105.661 472 0 366.339 0 236C0 105.661 105.661 0 236 0ZM284.5 95C243.907 95 211 127.907 211 168.5C211 209.093 243.907 242 284.5 242C325.093 242 358 209.093 358 168.5C358 127.907 325.093 95 284.5 95Z" fill="#FF462D"/>
</svg>
